<svg xmlns="http://www.w3.org/2000/svg" viewBox="0 0 785 778"><path d="m886 913-10-70-84-590-173-21q-7-2 9-9a817 817 0 0 1 479-80c76 11 128 34 165 72a184 184 0 0 1 52 135c0 25 0 27-3 40-9 42-25 76-57 119a652 652 0 0 1-116 114 11746 11746 0 0 0 254 284q1 5-21-9l-252-149-133-79c-2-2 22-122 24-124 39-26 63-45 90-69q66-58 80-103c3-8 3-10 3-23s0-15-2-20q-24-57-217-74c-8-1-7-6-11 35l-11 99q-1 1 8 5l114 49-133 70-51 397q-1 3-4 1m28-201 26-198 67-34c37-19 64-34 64-35s-60-27-116-50q-6-1-5-6l12-107 3-26q3-3 46 3 111 13 157 43c34 23 37 61 7 106a516 516 0 0 1-149 137l-6 4-23 119 24 16 377 222c0-1 11 10-134-150l-118-133 10-8c30-24 66-59 89-85q49-57 67-112c24-72 9-150-39-200-43-45-104-68-202-77a815 815 0 0 0-435 80c-17 8-17 8-16 9l101 13 72 9 13 80 83 577zm-26 188-45-320c-33-234-47-328-49-329l-31-5-139-17a835 835 0 0 1 430-88q98 6 157 35a186 186 0 0 1 111 173q1 73-54 148a620 620 0 0 1-124 126l15 19 230 257-390-231 22-117 11-9c28-18 67-49 91-72q67-63 73-106c2-11 2-16 0-25q-6-32-51-51c-20-9-49-17-78-23-23-4-68-10-91-11-13-1-13-2-14 15l-14 125 21 9 100 42-64 34-67 34c-1 2-5 29-25 193z" style="fill:#00b0ed;fill-opacity:1" transform="translate(-617 -136)"/></svg>