<svg width="256px" height="256px" viewBox="0 0 10.24 10.24" fill="none" xmlns="http://www.w3.org/2000/svg"><path fill-rule="evenodd" clip-rule="evenodd" d="M4.029 1.243A2.23 2.23 0 0 1 5.12 0.96c0.396 0 0.768 0.103 1.091 0.283l0.236 -0.236a0.16 0.16 0 0 1 0.227 0.227l-0.19 0.189A2.237 2.237 0 0 1 7.36 3.2H2.88a2.237 2.237 0 0 1 0.876 -1.777l-0.19 -0.189a0.16 0.16 0 0 1 0.227 -0.227zM4.48 2.24a0.32 0.32 0 1 1 -0.64 0 0.32 0.32 0 0 1 0.64 0m1.6 0.32a0.32 0.32 0 1 0 0 -0.64 0.32 0.32 0 0 0 0 0.64" fill="#87C527"/><path d="M1.6 4a0.48 0.48 0 0 1 0.96 0v1.92a0.48 0.48 0 0 1 -0.96 0z" fill="#87C527"/><path d="M3.84 7.68v1.12a0.48 0.48 0 0 0 0.96 0V7.68h0.64v1.12a0.48 0.48 0 0 0 0.96 0V7.68h0.32a0.64 0.64 0 0 0 0.64 -0.64V3.52H2.88v3.52a0.64 0.64 0 0 0 0.64 0.64z" fill="#87C527"/><path d="M7.68 4a0.48 0.48 0 0 1 0.96 0v1.92a0.48 0.48 0 0 1 -0.96 0z" fill="#87C527"/></svg>