<svg xmlns="http://www.w3.org/2000/svg" fill="none" viewBox="0 0 600 600"><path fill="#5865F2" d="M508.3 106.7a489 489 0 0 0-123.8-39 363 363 0 0 0-15.9 33q-69.2-10.5-137.2 0a352 352 0 0 0-16-33 487 487 0 0 0-123.9 39c-78.3 118.5-99.6 234-89 347.8a495 495 0 0 0 151.9 77.8 378 378 0 0 0 32.5-53.6q-27-10.3-51.2-24.9 6.5-4.8 12.5-10a350 350 0 0 0 303.6 0 308 308 0 0 0 12.5 10 319 319 0 0 1-51.3 25 376 376 0 0 0 32.5 53.5 494 494 0 0 0 152-77.8c12.4-132-21.3-246.3-89.2-347.7m-308 277.7c-29.6 0-54-27.7-54-61.4s23.9-61.4 54-61.4 54.5 27.7 54 61.4c0 33.7-23.8 61.4-54 61.4m199.4 0c-29.7 0-54-27.7-54-61.4s23.8-61.4 54-61.4 54.4 27.7 54 61.4c0 33.7-23.9 61.4-54 61.4"/></svg>