<svg width="256px" height="256px" viewBox="-1.483 0 256 256" version="1.1" xmlns="http://www.w3.org/2000/svg" xmlns:xlink="http://www.w3.org/1999/xlink" preserveAspectRatio="xMidYMid"><g><path d="m66.879 219.254 4.137 2.069c17.238 10.342 36.543 15.168 55.849 15.168 60.674 0 110.316 -49.642 110.316 -110.316 0 -28.958 -11.722 -57.226 -32.405 -77.911 -20.685 -20.685 -48.264 -32.405 -77.911 -32.405 -60.674 0 -110.317 49.642 -109.627 111.006 0 20.684 6.205 40.679 16.547 57.915l2.758 4.138 -11.031 40.679z" fill="#00E676"/><path d="M216.496 37.232C193.054 13.1 160.648 0 127.553 0 57.227 0 0.69 57.226 1.379 126.863c0 22.063 6.205 43.438 16.548 62.743L0 255.106l66.879 -17.237c18.616 10.343 39.299 15.169 59.985 15.169 69.637 0 126.174 -57.227 126.174 -126.863 0 -33.785 -13.1 -65.501 -36.542 -88.944M127.553 231.665c-18.616 0 -37.232 -4.825 -53.09 -14.478l-4.137 -2.069 -39.989 10.342 10.342 -39.299 -2.758 -4.138C7.584 133.071 22.063 68.258 71.706 37.921s113.764 -15.857 144.101 33.785 15.857 113.764 -33.784 144.101c-15.859 10.342 -35.164 15.857 -54.47 15.857m60.674 -76.531 -7.584 -3.448s-11.031 -4.826 -17.926 -8.274c-0.69 0 -1.379 -0.69 -2.069 -0.69 -2.069 0 -3.448 0.69 -4.826 1.38 0 0 -0.689 0.689 -10.342 11.721 -0.69 1.379 -2.069 2.069 -3.448 2.069h-0.69c-0.689 0 -2.068 -0.69 -2.758 -1.379l-3.448 -1.379c-7.584 -3.448 -14.478 -7.585 -19.995 -13.1 -1.379 -1.379 -3.448 -2.758 -4.826 -4.137 -4.826 -4.826 -9.653 -10.343 -13.099 -16.548l-0.69 -1.379c-0.689 -0.69 -0.689 -1.379 -1.379 -2.758 0 -1.379 0 -2.758 0.69 -3.448 0 0 2.758 -3.448 4.825 -5.515 1.38 -1.38 2.069 -3.448 3.448 -4.826 1.379 -2.069 2.069 -4.826 1.379 -6.895 -0.689 -3.448 -8.963 -22.063 -11.031 -26.2 -1.38 -2.069 -2.758 -2.758 -4.826 -3.448H82.048c-1.38 0 -2.758 0.69 -4.138 0.69l-0.69 0.689c-1.379 0.69 -2.758 2.069 -4.137 2.758 -1.379 1.38 -2.069 2.758 -3.448 4.138 -4.826 6.205 -7.584 13.789 -7.584 21.374 0 5.515 1.379 11.032 3.448 15.858l0.69 2.069c6.205 13.099 14.478 24.821 25.511 35.163l2.758 2.758c2.068 2.069 4.137 3.448 5.515 5.515 14.479 12.412 31.026 21.375 49.642 26.201 2.069 0.689 4.826 0.689 6.895 1.379h6.894c3.448 0 7.584 -1.379 10.343 -2.758 2.068 -1.379 3.447 -1.379 4.825 -2.758l1.38 -1.38c1.379 -1.379 2.758 -2.068 4.137 -3.447s2.758 -2.758 3.448 -4.138c1.379 -2.758 2.068 -6.205 2.758 -9.652v-4.826s-0.69 -0.69 -2.069 -1.379" fill="#FFFFFF"/></g></svg>