<svg width="256px" height="256px" viewBox="0 0 5.12 5.12" xmlns="http://www.w3.org/2000/svg" fill="none"><path fill="#202020" d="M4.268 3.851c-0.032 -0.036 -0.047 -0.102 -0.063 -0.173 -0.016 -0.07 -0.034 -0.146 -0.092 -0.195v0a0.256 0.256 0 0 0 -0.071 -0.043c0.081 -0.238 0.049 -0.476 -0.032 -0.69 -0.1 -0.263 -0.274 -0.493 -0.406 -0.65 -0.148 -0.188 -0.294 -0.365 -0.291 -0.628 0.004 -0.401 0.044 -1.145 -0.662 -1.146q-0.043 0 -0.09 0.004c-0.789 0.063 -0.58 0.897 -0.592 1.176 -0.014 0.204 -0.056 0.365 -0.196 0.564 -0.165 0.196 -0.397 0.513 -0.507 0.844 -0.052 0.156 -0.077 0.315 -0.054 0.465a0.32 0.32 0 0 0 -0.02 0.02c-0.048 0.052 -0.084 0.114 -0.124 0.156 -0.037 0.037 -0.09 0.051 -0.148 0.072 -0.059 0.021 -0.123 0.052 -0.161 0.126v0a0.224 0.224 0 0 0 -0.025 0.108c0 0.035 0.005 0.069 0.01 0.103 0.011 0.07 0.022 0.137 0.007 0.181 -0.046 0.126 -0.052 0.213 -0.02 0.277 0.033 0.064 0.099 0.092 0.175 0.107 0.151 0.032 0.356 0.024 0.518 0.109l0.014 -0.026 -0.014 0.026c0.173 0.091 0.348 0.123 0.488 0.091a0.317 0.317 0 0 0 0.226 -0.177c0.109 -0.001 0.229 -0.047 0.422 -0.058 0.131 -0.01 0.294 0.046 0.481 0.036a0.256 0.256 0 0 0 0.022 0.059l0 0c0.073 0.146 0.208 0.212 0.352 0.201s0.297 -0.096 0.421 -0.244l-0.022 -0.019 0.022 0.019c0.118 -0.143 0.314 -0.203 0.444 -0.281 0.065 -0.039 0.118 -0.088 0.122 -0.16s-0.038 -0.151 -0.134 -0.258"/><path fill="#F8BF11" d="M4.343 4.105c-0.002 0.044 -0.034 0.077 -0.093 0.112 -0.118 0.071 -0.326 0.132 -0.459 0.294 -0.116 0.138 -0.257 0.213 -0.381 0.223s-0.231 -0.042 -0.294 -0.168v-0.001c-0.039 -0.075 -0.023 -0.192 0.01 -0.316s0.08 -0.251 0.087 -0.355v0c0.006 -0.133 0.014 -0.248 0.036 -0.338 0.022 -0.09 0.057 -0.15 0.119 -0.184l0.009 -0.004c0.007 0.115 0.064 0.232 0.164 0.257 0.11 0.029 0.268 -0.065 0.335 -0.142l0.039 -0.001c0.059 -0.002 0.108 0.002 0.158 0.046v0c0.039 0.033 0.057 0.095 0.073 0.164s0.029 0.145 0.076 0.199c0.092 0.102 0.122 0.171 0.119 0.215m-2.233 0.325v0.001c-0.011 0.139 -0.09 0.215 -0.21 0.243 -0.121 0.028 -0.284 0 -0.447 -0.085 -0.181 -0.096 -0.396 -0.086 -0.533 -0.115 -0.069 -0.014 -0.114 -0.036 -0.135 -0.076 -0.02 -0.04 -0.021 -0.11 0.023 -0.23v0l0 -0.001c0.022 -0.067 0.006 -0.14 -0.005 -0.209 -0.011 -0.068 -0.016 -0.131 0.008 -0.175l0 0c0.03 -0.058 0.074 -0.079 0.129 -0.098 0.054 -0.02 0.119 -0.035 0.171 -0.086l0 0h0c0.047 -0.05 0.083 -0.113 0.125 -0.157 0.035 -0.037 0.07 -0.062 0.123 -0.063h0.002a0.32 0.32 0 0 1 0.03 0.003c0.07 0.011 0.132 0.06 0.191 0.14l0.171 0.311v0c0.045 0.095 0.141 0.199 0.222 0.305 0.081 0.107 0.144 0.213 0.136 0.295"/><path fill="#D6A312" d="M2.96 1.532c-0.014 -0.027 -0.042 -0.052 -0.09 -0.072 -0.099 -0.043 -0.142 -0.045 -0.197 -0.081 -0.09 -0.058 -0.164 -0.078 -0.226 -0.078a0.256 0.256 0 0 0 -0.087 0.015c-0.076 0.026 -0.125 0.08 -0.157 0.109 -0.006 0.006 -0.014 0.011 -0.033 0.026 -0.019 0.014 -0.048 0.035 -0.09 0.067 -0.037 0.028 -0.049 0.064 -0.036 0.106s0.053 0.091 0.128 0.133h0c0.046 0.027 0.078 0.064 0.115 0.093a0.256 0.256 0 0 0 0.06 0.037 0.256 0.256 0 0 0 0.083 0.019c0.079 0.005 0.138 -0.019 0.189 -0.048 0.051 -0.029 0.095 -0.065 0.145 -0.082h0c0.102 -0.032 0.175 -0.096 0.198 -0.158a0.102 0.102 0 0 0 -0.003 -0.086"/><path fill="#202020" d="M2.7 1.683c-0.082 0.043 -0.177 0.094 -0.278 0.094s-0.181 -0.047 -0.238 -0.092c-0.029 -0.022 -0.052 -0.045 -0.07 -0.062 -0.031 -0.024 -0.027 -0.058 -0.014 -0.057 0.021 0.003 0.024 0.03 0.037 0.043 0.018 0.017 0.04 0.038 0.068 0.06 0.054 0.043 0.127 0.085 0.218 0.085s0.196 -0.053 0.261 -0.09c0.037 -0.02 0.083 -0.057 0.121 -0.085 0.029 -0.021 0.028 -0.047 0.052 -0.044s0.006 0.028 -0.027 0.058c-0.034 0.029 -0.086 0.068 -0.129 0.091"/><path fill="#ffffff" d="M3.948 3.422h-0.036c0.028 -0.089 -0.034 -0.154 -0.199 -0.228 -0.171 -0.075 -0.307 -0.068 -0.33 0.085a0.32 0.32 0 0 0 -0.004 0.024 0.32 0.32 0 0 0 -0.038 0.017c-0.081 0.044 -0.124 0.124 -0.149 0.221s-0.031 0.216 -0.038 0.349c-0.004 0.067 -0.032 0.157 -0.06 0.253 -0.28 0.2 -0.669 0.286 -0.999 0.061q-0.034 -0.053 -0.075 -0.105l-0.051 -0.066a0.208 0.208 0 0 0 0.086 -0.016 0.109 0.109 0 0 0 0.06 -0.061c0.02 -0.054 0 -0.131 -0.065 -0.218 -0.064 -0.087 -0.173 -0.186 -0.334 -0.284 -0.118 -0.074 -0.184 -0.163 -0.214 -0.26 -0.031 -0.098 -0.027 -0.203 -0.003 -0.307 0.046 -0.2 0.163 -0.395 0.238 -0.516 0.02 -0.015 0.007 0.028 -0.076 0.181 -0.074 0.141 -0.213 0.466 -0.023 0.719a1.504 1.504 0 0 1 0.121 -0.537c0.105 -0.239 0.326 -0.653 0.343 -0.983 0.009 0.006 0.04 0.028 0.054 0.035 0.04 0.024 0.071 0.059 0.11 0.091a0.272 0.272 0 0 0 0.184 0.064c0.077 0 0.137 -0.025 0.186 -0.054 0.054 -0.031 0.097 -0.065 0.139 -0.078 0.086 -0.027 0.156 -0.075 0.195 -0.131 0.067 0.266 0.224 0.649 0.324 0.836 0.053 0.099 0.16 0.31 0.206 0.564q0.044 -0.001 0.096 0.012c0.12 -0.311 -0.102 -0.647 -0.204 -0.74 -0.041 -0.04 -0.043 -0.058 -0.022 -0.057 0.11 0.097 0.254 0.293 0.307 0.515 0.024 0.101 0.029 0.207 0.003 0.311q0.019 0.008 0.038 0.017c0.193 0.094 0.264 0.175 0.23 0.287"/><path fill="#E6E6E6" d="M2.573 2.58c-0.178 0.001 -0.352 0.08 -0.499 0.229S1.814 3.168 1.748 3.413l0.02 0.012v0.001c0.15 0.095 0.258 0.191 0.324 0.281 0.07 0.095 0.101 0.187 0.071 0.267a0.163 0.163 0 0 1 -0.086 0.091l-0.013 0.005q0.036 0.046 0.068 0.096c0.302 0.201 0.653 0.127 0.917 -0.055 0.026 -0.089 0.049 -0.172 0.052 -0.223 0.007 -0.133 0.013 -0.253 0.04 -0.358 0.026 -0.106 0.077 -0.202 0.174 -0.254q0.008 -0.004 0.016 -0.007a0.32 0.32 0 0 1 0.007 -0.03c-0.077 -0.199 -0.189 -0.365 -0.323 -0.48s-0.287 -0.176 -0.442 -0.177zm0.758 0.69 -0.001 0.002v-0.001l0 -0.001z"/><path fill="#ffffff" d="M2.969 1.227a0.336 0.336 0 0 1 -0.069 0.21 1.28 1.28 0 0 0 -0.07 -0.029l-0.041 -0.014c0.009 -0.011 0.027 -0.024 0.034 -0.041a0.224 0.224 0 0 0 0.016 -0.078l0 -0.003a0.224 0.224 0 0 0 -0.011 -0.076 0.138 0.138 0 0 0 -0.035 -0.059 0.07 0.07 0 0 0 -0.05 -0.022H2.742a0.074 0.074 0 0 0 -0.048 0.019 0.138 0.138 0 0 0 -0.039 0.056 0.224 0.224 0 0 0 -0.016 0.078v0.003a0.32 0.32 0 0 0 0.003 0.045 0.576 0.576 0 0 0 -0.113 -0.038 0.32 0.32 0 0 1 -0.003 -0.043v-0.004a0.32 0.32 0 0 1 0.028 -0.143 0.256 0.256 0 0 1 0.08 -0.105 0.176 0.176 0 0 1 0.111 -0.039h0.002c0.04 0 0.074 0.012 0.109 0.037a0.256 0.256 0 0 1 0.082 0.104c0.02 0.044 0.03 0.087 0.031 0.139zm-0.605 0.052a0.32 0.32 0 0 0 -0.089 0.04 0.192 0.192 0 0 0 0.001 -0.048v-0.003a0.224 0.224 0 0 0 -0.015 -0.061 0.128 0.128 0 0 0 -0.031 -0.045 0.051 0.051 0 0 0 -0.038 -0.014 0.051 0.051 0 0 0 -0.035 0.021 0.128 0.128 0 0 0 -0.022 0.05 0.192 0.192 0 0 0 -0.004 0.066v0.003a0.192 0.192 0 0 0 0.015 0.062 0.118 0.118 0 0 0 0.037 0.05l-0.033 0.026 -0.025 0.018a0.224 0.224 0 0 1 -0.051 -0.077 0.352 0.352 0 0 1 -0.029 -0.122v0a0.352 0.352 0 0 1 0.014 -0.125 0.214 0.214 0 0 1 0.053 -0.093 0.115 0.115 0 0 1 0.084 -0.038 0.115 0.115 0 0 1 0.075 0.029 0.224 0.224 0 0 1 0.064 0.087c0.017 0.038 0.026 0.077 0.028 0.122v0q0.002 0.028 -0.001 0.054"/><path fill="#202020" d="M2.498 1.387c0.003 0.011 0.021 0.009 0.031 0.014 0.009 0.004 0.016 0.014 0.026 0.015s0.024 -0.003 0.026 -0.013c0.002 -0.012 -0.017 -0.02 -0.028 -0.025 -0.015 -0.006 -0.034 -0.009 -0.048 -0.001 -0.003 0.002 -0.007 0.006 -0.006 0.01zm-0.103 0c-0.003 0.011 -0.021 0.009 -0.031 0.014 -0.009 0.004 -0.016 0.014 -0.026 0.015 -0.01 0 -0.024 -0.003 -0.026 -0.013 -0.002 -0.012 0.017 -0.02 0.028 -0.025 0.015 -0.006 0.035 -0.009 0.049 -0.001 0.003 0.002 0.006 0.006 0.005 0.01z"/></svg>