<svg xmlns="http://www.w3.org/2000/svg" fill="none" viewBox="0 0 600 600"><g clip-path="url(#devicon-microsoft-edge-7-a)"><path fill="url(#devicon-microsoft-edge-8-b)" d="M541.3 446.4q-12 6.4-24.6 11c-27 10-55.3 15.2-84 15.2-111 0-207.5-76.2-207.5-174 .3-26.8 15-51.4 38.5-64-100.3 4.2-126 108.7-126 169.8 0 173.2 159.5 190.7 194 190.7 18.4 0 46.3-5.4 63.2-10.7l3-1a300 300 0 0 0 156-123.7 9.4 9.4 0 0 0-2.7-12.9 10 10 0 0 0-9.9-.4"/><path fill="url(#devicon-microsoft-edge-9-c)" d="M541.3 446.4q-12 6.4-24.6 11c-27 10-55.3 15.2-84 15.2-111 0-207.5-76.2-207.5-174 .3-26.8 15-51.4 38.5-64-100.3 4.2-126 108.7-126 169.8 0 173.2 159.5 190.7 194 190.7 18.4 0 46.3-5.4 63.2-10.7l3-1a300 300 0 0 0 156-123.7 9.4 9.4 0 0 0-2.7-12.9 10 10 0 0 0-9.9-.4" opacity=".3"/><path fill="url(#devicon-microsoft-edge-10-d)" d="M247.7 565.6a186 186 0 0 1-53.1-49.9 189 189 0 0 1 69-281.2c7.3-3.5 19.8-9.6 36.4-9.3a75.5 75.5 0 0 1 75.2 74.3c0-.5 57.4-186.6-187.4-186.6C84.9 113 .3 210.6.3 296.2a300 300 0 0 0 394.8 288.4 178 178 0 0 1-147.4-19"/><path fill="url(#devicon-microsoft-edge-11-e)" d="M247.7 565.6a186 186 0 0 1-53.1-49.9 189 189 0 0 1 69-281.2c7.3-3.5 19.8-9.6 36.4-9.3a75.5 75.5 0 0 1 75.2 74.3c0-.5 57.4-186.6-187.4-186.6C84.9 113 .3 210.6.3 296.2a300 300 0 0 0 394.8 288.4 178 178 0 0 1-147.4-19" opacity=".4"/><path fill="url(#devicon-microsoft-edge-12-f)" d="M357 348.9c-2 2.3-7.8 5.8-7.8 13.3 0 6.1 4 12 11 16.9 33.7 23.4 97.2 20.4 97.5 20.4A143.6 143.6 0 0 0 599.9 256c.7-52.5-18.7-87.4-26.5-102.9C523.8 56 416.4 0 300 0A300 300 0 0 0 0 295.7C1.4 210.2 86.4 141 187.6 141c8.2 0 55 .7 98.4 23.6a169 169 0 0 1 72.2 68.4 151 151 0 0 1 17.1 69.2c0 12.4-6.3 31.1-18.3 46.6"/><path fill="url(#devicon-microsoft-edge-13-g)" d="M357 348.9c-2 2.3-7.8 5.8-7.8 13.3 0 6.1 4 12 11 16.9 33.7 23.4 97.2 20.4 97.5 20.4A143.6 143.6 0 0 0 599.9 256c.7-52.5-18.7-87.4-26.5-102.9C523.8 56 416.4 0 300 0A300 300 0 0 0 0 295.7C1.4 210.2 86.4 141 187.6 141c8.2 0 55 .7 98.4 23.6a169 169 0 0 1 72.2 68.4 151 151 0 0 1 17.1 69.2c0 12.4-6.3 31.1-18.3 46.6"/></g><defs><radialGradient id="devicon-microsoft-edge-9-c" cx="0" cy="0" r="1" gradientTransform="matrix(223.457 0 0 212.26 368.4 418)" gradientUnits="userSpaceOnUse"><stop offset=".7" stop-opacity="0"/><stop offset=".9" stop-opacity=".5"/><stop offset="1"/></radialGradient><radialGradient id="devicon-microsoft-edge-11-e" cx="0" cy="0" r="1" gradientTransform="matrix(50.24178 -332.2083 268.4444 40.5984 165.6 466.3)" gradientUnits="userSpaceOnUse"><stop offset=".8" stop-opacity="0"/><stop offset=".9" stop-opacity=".5"/><stop offset="1"/></radialGradient><radialGradient id="devicon-microsoft-edge-12-f" cx="0" cy="0" r="1" gradientTransform="rotate(92.3 -23 84.7)scale(474.585 1010.92)" gradientUnits="userSpaceOnUse"><stop stop-color="#35C1F1"/><stop offset=".1" stop-color="#34C1ED"/><stop offset=".2" stop-color="#2FC2DF"/><stop offset=".3" stop-color="#2BC3D2"/><stop offset=".7" stop-color="#36C752"/></radialGradient><radialGradient id="devicon-microsoft-edge-13-g" cx="0" cy="0" r="1" gradientTransform="matrix(63.86015 218.90225 -178.0463 51.94128 562.6 181.4)" gradientUnits="userSpaceOnUse"><stop stop-color="#66EB6E"/><stop offset="1" stop-color="#66EB6E" stop-opacity="0"/></radialGradient><linearGradient id="devicon-microsoft-edge-8-b" x1="137.6" x2="555.4" y1="414.8" y2="414.8" gradientUnits="userSpaceOnUse"><stop stop-color="#0C59A4"/><stop offset="1" stop-color="#114A8B"/></linearGradient><linearGradient id="devicon-microsoft-edge-10-d" x1="358" x2="97.1" y1="233.7" y2="517.9" gradientUnits="userSpaceOnUse"><stop stop-color="#1B9DE2"/><stop offset=".2" stop-color="#1595DF"/><stop offset=".7" stop-color="#0680D7"/><stop offset="1" stop-color="#0078D4"/></linearGradient><clipPath id="devicon-microsoft-edge-7-a"><path fill="#fff" d="M0 0h600v600H0z"/></clipPath></defs></svg>