<?xml version="1.0" encoding="utf-8"?>
<!-- Generator: Adobe Illustrator 22.1.0, SVG Export Plug-In . SVG Version: 6.00 Build 0)  -->
<svg version="1.1" id="Layer_1" xmlns="http://www.w3.org/2000/svg" xmlns:xlink="http://www.w3.org/1999/xlink" x="0px" y="0px"
	 viewBox="0 0 512 512" style="enable-background:new 0 0 512 512;" xml:space="preserve">
<g>
	<path d="M470,179.5L357.5,67c-23.4-23.4-64-7-64,26.5v44.7c-33.2,1.5-65.6,5.1-94.3,14.1c-27.5,8.6-49.3,21.5-64.8,38.6
		c-18.8,20.7-28.4,46.8-28.4,77.6c0,48.2,25.9,87.9,66.3,113.1c29.3,18.4,66.6-9.9,55.5-43.5c-12.1-36.8-13.4-55.4,65.7-61.5v42
		c0,33.6,40.6,49.9,64,26.5L470,232.5C484.7,217.9,484.7,194.1,470,179.5z M331,318.5v-81.1c-100.5,1.5-169.9,18.1-138.8,112.4
		c-23.1-14.4-48.7-40.6-48.7-81.3c0-85.4,100.9-92.9,187.5-93.6V93.5L443.5,206L331,318.5z M350.3,384.5c5.8-1.6,11.3-4.1,16.4-7.3
		c6.2-3.9,14.3,0.6,14.3,8v33.3c0,20.7-16.8,37.5-37.5,37.5h-275C47.8,456,31,439.2,31,418.5v-275c0-20.7,16.8-37.5,37.5-37.5h103.1
		c5.2,0,9.4,4.2,9.4,9.4v3.5c0,3.8-2.3,7.3-5.9,8.7c-10.7,4.2-20.6,9-29.7,14.5c-1.5,0.9-3.2,1.4-4.9,1.4H73.2
		c-2.6,0-4.7,2.1-4.7,4.7v265.6c0,2.6,2.1,4.7,4.7,4.7h265.6c2.6,0,4.7-2.1,4.7-4.7v-20.3C343.5,389.3,346.3,385.7,350.3,384.5z"/>
</g>
</svg>
