<svg width="384px" height="384px" viewBox="0 0 7.68 7.68" xmlns="http://www.w3.org/2000/svg" fill="none"><path fill="#1877F2" d="M7.2 3.84a3.36 3.36 0 0 0 -3.36 -3.36 3.36 3.36 0 0 0 -0.525 6.679v-2.348H2.462V3.84h0.853V3.1c0 -0.842 0.502 -1.308 1.269 -1.308 0.368 0 0.752 0.066 0.752 0.066v0.827h-0.424c-0.418 0 -0.547 0.259 -0.547 0.525V3.84h0.932l-0.149 0.971H4.365v2.348A3.36 3.36 0 0 0 7.2 3.84"/><path fill="#ffffff" d="M5.148 4.811 5.297 3.84H4.365V3.21c0 -0.265 0.13 -0.525 0.547 -0.525h0.424V1.858s-0.384 -0.066 -0.752 -0.066c-0.768 0 -1.269 0.466 -1.269 1.308V3.84H2.462v0.971h0.853v2.348a3.36 3.36 0 0 0 1.05 0v-2.348z"/></svg>