<svg width="384px" height="384px" viewBox="0 0 7.68 7.68" xmlns="http://www.w3.org/2000/svg" fill="#000000"><path fill-rule="evenodd" clip-rule="evenodd" d="M3.828 0A3.829 3.829 0 0 0 0 3.828c0 1.691 1.104 3.123 2.607 3.64 0.188 0.024 0.258 -0.094 0.258 -0.188v-0.658c-1.056 0.235 -1.291 -0.516 -1.291 -0.516 -0.165 -0.446 -0.423 -0.564 -0.423 -0.564 -0.352 -0.235 0.023 -0.235 0.023 -0.235 0.376 0.024 0.588 0.399 0.588 0.399 0.352 0.587 0.892 0.422 1.104 0.329 0.023 -0.258 0.141 -0.422 0.235 -0.516 -0.846 -0.094 -1.738 -0.423 -1.738 -1.903 0 -0.422 0.141 -0.752 0.399 -1.033 -0.024 -0.071 -0.165 -0.469 0.047 -0.986 0 0 0.329 -0.094 1.056 0.399 0.305 -0.094 0.635 -0.118 0.963 -0.118s0.658 0.047 0.963 0.118c0.728 -0.493 1.057 -0.399 1.057 -0.399 0.211 0.517 0.07 0.916 0.047 1.01a1.517 1.517 0 0 1 0.399 1.033c0 1.48 -0.893 1.785 -1.738 1.879 0.141 0.117 0.258 0.352 0.258 0.704v1.057c0 0.094 0.07 0.211 0.258 0.188A3.83 3.83 0 0 0 7.68 3.828C7.656 1.715 5.942 0 3.828 0"/></svg>