<svg width="384px" height="384px" viewBox="0 0 7.68 7.68" xmlns="http://www.w3.org/2000/svg" fill="none"><path fill="#0A66C2" d="M5.868 5.868h-0.853V4.531c0 -0.319 -0.006 -0.729 -0.444 -0.729 -0.444 0 -0.513 0.348 -0.513 0.706v1.36H3.204V3.119h0.819v0.376h0.012c0.167 -0.285 0.478 -0.456 0.808 -0.444 0.865 0 1.025 0.569 1.025 1.309zM2.242 2.743a0.498 0.498 0 0 1 -0.495 -0.495c0 -0.272 0.224 -0.495 0.495 -0.495s0.495 0.224 0.495 0.495c0 0.272 -0.224 0.495 -0.495 0.495zm0.427 3.125h-0.854V3.119h0.854zM6.293 0.96H1.385A0.422 0.422 0 0 0 0.96 1.376v4.929a0.422 0.422 0 0 0 0.425 0.416h4.908a0.422 0.422 0 0 0 0.427 -0.416V1.375a0.422 0.422 0 0 0 -0.427 -0.415z"/></svg>