<svg width="256px" height="256px" viewBox="-8.409 0 256 256" version="1.1" xmlns="http://www.w3.org/2000/svg" xmlns:xlink="http://www.w3.org/1999/xlink" preserveAspectRatio="xMidYMid"><g><path d="M233.459 153.306c-3.506 18.039 -31.405 37.781 -63.447 41.607 -16.708 1.994 -33.159 3.826 -50.701 3.022 -28.688 -1.315 -51.324 -6.848 -51.324 -6.848 0 2.794 0.172 5.453 0.517 7.94 3.73 28.311 28.073 30.008 51.133 30.798 23.275 0.796 44 -5.739 44 -5.739l0.956 21.042s-16.28 8.742 -45.281 10.35c-15.992 0.878 -35.848 -0.402 -58.975 -6.524 -50.159 -13.276 -58.787 -66.743 -60.106 -120.995 -0.402 -16.107 -0.154 -31.296 -0.154 -44 0 -55.474 36.347 -71.735 36.347 -71.735C54.75 3.806 86.198 0.267 118.891 0h0.804c32.692 0.267 64.162 3.806 82.487 12.224 0 0 36.345 16.261 36.345 71.736 0 0 0.456 40.929 -5.069 69.346" fill="#3088D4"/><path d="M195.656 88.263v67.171H169.044V90.237c0 -13.744 -5.783 -20.719 -17.35 -20.719 -12.788 0 -19.197 8.275 -19.197 24.638v35.686h-26.455v-35.686c0 -16.363 -6.411 -24.638 -19.2 -24.638 -11.566 0 -17.348 6.976 -17.348 20.719v65.196H42.882V88.264c0 -13.729 3.495 -24.638 10.517 -32.709 7.241 -8.071 16.722 -12.208 28.493 -12.208 13.618 0 23.93 5.234 30.749 15.704l6.629 11.112 6.63 -11.112c6.817 -10.47 17.13 -15.704 30.749 -15.704 11.769 0 21.251 4.137 28.493 12.208 7.019 8.071 10.516 18.98 10.516 32.709" fill="#FFFFFF"/></g></svg>