<svg fill="#000000" width="256px" height="256px" viewBox="0 0 7.68 7.68" xmlns="http://www.w3.org/2000/svg" data-name="Layer 1"><path d="M4.781 1.661A1.402 1.402 0 0 0 5.12 0.64a1.421 1.421 0 0 0 -0.96 0.486 1.334 1.334 0 0 0 -0.32 0.989 1.181 1.181 0 0 0 0.941 -0.454m0.806 2.381a1.443 1.443 0 0 1 0.691 -1.219 1.491 1.491 0 0 0 -1.171 -0.64c-0.499 -0.051 -0.96 0.291 -1.226 0.291s-0.64 -0.285 -1.056 -0.278a1.574 1.574 0 0 0 -1.325 0.81C0.938 3.984 1.357 5.44 1.92 6.23c0.256 0.387 0.576 0.826 0.998 0.81s0.56 -0.262 1.05 -0.262 0.64 0.262 1.056 0.253 0.71 -0.397 0.979 -0.784a3.52 3.52 0 0 0 0.442 -0.912 1.411 1.411 0 0 1 -0.858 -1.293"/></svg>