<svg xmlns="http://www.w3.org/2000/svg" viewBox="0 0 512 512" xml:space="preserve"><path style="fill:#027acd" d="m418.849 240.537 36.854-21.278-107.806-28.886-28.887 107.805 36.855-21.277 61.658 106.796h-88.905l36.364 36.363-36.364 36.365h151.89L512 401.878zM287.492 13.02H256l-20.899 42.708L256 103.93l43.826 75.909 13.311-49.674 49.674 13.31zm7.968 407.04L256 380.601l-20.899 39.459L256 459.52z"/><path style="fill:#3eaff5" d="m224.508 13.02-93.151 161.342-36.853-21.278L123.39 260.89l107.805-28.887-36.853-21.277L256 103.93V13.02zm-7.968 370.677H94.477l43.826-75.909-49.676 13.311-13.31-49.674L0 401.878l31.492 54.547H216.54v42.554L256 459.52v-78.919l-39.46-39.46z"/></svg>