<svg width="256" height="256" viewBox="0 0 4.48 4.48" aria-hidden="true" xmlns="http://www.w3.org/2000/svg"><path fill="green" d="m2.109 2.929-.033.803-.004.048-.916-.063q-.079-.006-.146-.069-.068-.062-.102-.143-.024-.059-.032-.12-.007-.061.009-.142t.026-.12.047-.14T1 2.867q.17.026 1.11.061m-.845-1.279.393.829-.321-.201q-.138.157-.243.315-.106.158-.158.273t-.086.206-.04.138l-.009.045-.414-.779Q.35 2.418.348 2.353t.013-.102l.018-.039q.076-.138.249-.41L.32 1.614zm2.686 1.128-.41.783q-.026.063-.08.101-.053.038-.095.045l-.039.009q-.155.015-.478.026l.018.358-.502-.801.461-.79.015.378q.371.035.618.011t.371-.072zM2.238.761q-.102.137-.578.949l-.692-.406-.042-.026.492-.777q.044-.068.131-.098t.174-.022q.052.004.106.026.053.022.092.046t.091.072T2.09.6t.079.086.07.076m1.429.67.463.792q.039.081.027.166t-.06.162q-.028.044-.072.081t-.083.061-.106.048-.102.035q-.036.011-.113.03l-.1.026q-.074-.157-.578-.951l.683-.426zM3.356.939l.31-.181-.48.814-.915-.044.33-.188q-.074-.194-.164-.362T2.272.709 2.131.535 2.029.433L1.992.405l.884.002q.068-.006.127.023.059.03.085.062l.024.033q.085.133.244.415z"/></svg>