<svg xmlns="http://www.w3.org/2000/svg" width="120" height="42" version="1.0"><path d="m181.96579.51074 114.06396.20264c1.59375 0 3.01758-.23633 3.01758 3.18066l-.13965 37.56689H179.08737V3.75439c0-1.68505.16309-3.24365 2.87842-3.24365" style="fill:#aab2ab" transform="matrix(.9937728 0 0 .9936696 -177.69267 6.3e-7)"/><path d="M117.7523661 6.3e-7H2.24714735c-1.2388173 0-2.24714887 1.00773996-2.24714887 2.2464286V41.4929801c0 .27995647.22757397.50701991.50755952.50701991H119.4924424c.27998555 0 .50755952-.22707338.50755952-.50701991V2.24642924C119.999992 1.00774059 118.99167035 6.3e-7 117.75236611 6.3e-7M2.2471374 1.01501425h115.50521877c.6798201 0 1.23250684.55214245 1.23250684 1.23141499v27.27594235H36.15962426c-3.02595867 5.4710057-8.85563861 9.1856209-15.54613449 9.1856209-6.69340762 0-12.52163665-3.71121684-15.54613448-9.1856209H1.01510757V2.24642924c.00000994-.6792626.55269668-1.231415 1.23202983-1.231415"/><path d="M253.07761 32.95605c.31738 0 .60742.02832.87012.08398.26172.05566.48535.14746.67285.27539.18652.12695.33203.29688.43457.50781.10254.21191.1543.47266.1543.78418 0 .33594-.07617.61523-.22949.83887-.15234.22461-.37891.40723-.67773.55078.41211.11816.71973.3252.92285.62109s.30469.65234.30469 1.06934c0 .33594-.06543.62695-.19629.87305-.13086.24512-.30762.44629-.52832.60156-.22168.15625-.47461.27148-.75781.3457-.28418.0752-.5752.1123-.875.1123H249.936v-6.66406h3.14161zm-.1875 2.69532c.26172 0 .47656-.0625.64551-.18652.16797-.12402.25195-.3252.25195-.60449 0-.15527-.02832-.2832-.08398-.38184-.05664-.09961-.13086-.17676-.22461-.2334-.09375-.05566-.20117-.09473-.32227-.11621s-.24805-.03223-.37793-.03223h-1.37402v1.55469zm.08593 2.82812c.14355 0 .28027-.01367.41113-.04199s.24609-.0752.34668-.13965c.09961-.06543.17871-.1543.23828-.2666.05957-.11133.08887-.25488.08887-.42871q0-.5127-.29004-.73242c-.19336-.14551-.44922-.21875-.7666-.21875h-1.59961v1.82812zM255.78854 32.95605h1.64355l1.56055 2.63184 1.55078-2.63184h1.63379l-2.47363 4.10645v2.55762h-1.46875v-2.59473z" style="fill:#fff" transform="matrix(.9937728 0 0 .9936696 -177.69267 6.3e-7)"/><path d="M186.90065-141.46002c.00558 8.68079-7.02786 15.7215-15.70808 15.72711-8.68022.00555-15.72206-7.02734-15.7271-15.70807v-.01904c-.00504-8.68079 7.02786-15.7215 15.70808-15.72656 8.68135-.00555 15.72206 7.02734 15.7271 15.70813z" style="fill:#fff" transform="matrix(.8674851 0 0 .867395 -127.87945064 142.30779619)"/><path d="M31.70315158 8.50151715c3.0235414 3.02322742 4.53555066 6.72570324 4.53555066 11.10455637 0 4.37980728-1.48580253 8.04251303-4.4574076 10.98808257-3.15357743 3.10232518-6.88073603 4.65298467-11.18142377 4.65298467-4.24874272 0-7.91135176-1.53805624-10.98681215-4.61412537-3.0759375-3.0756441-4.61367638-6.7509531-4.61367638-11.02694187 0-4.27503462 1.53773887-7.97654763 4.61367638-11.10455637 2.99733468-3.02418155 6.65992637-4.5360338 10.98681215-4.5360338 4.37932527-.00000867 8.07979136 1.51184357 11.10328071 4.5360338m-20.05450426 2.03390263c-2.55623583 2.58169732-3.83387663 5.60587887-3.83387663 9.07498205 0 3.46814904 1.26503624 6.4666557 3.79458822 8.99546793 2.53002043 2.5297577 5.54192019 3.79416815 9.03663615 3.79416815s6.53229327-1.27700503 9.11425871-3.83249834c2.4514523-2.37358321 3.67765123-5.35795133 3.67765123-8.95713774 0-3.57196756-1.24610771-6.6038776-3.73684841-9.09435965-2.49026359-2.49000498-5.50845261-3.73550622-9.05506153-3.73550622-3.54662627.00000867-6.54637256 1.2518072-8.99734774 3.75488382m6.72690489 7.54910402c-.39061989-.85151305-.97531355-1.27753414-1.7551133-1.27753414-1.37858137 0-2.06760747.92817344-2.06760747 2.78356617 0 1.85581775.6890261 2.78303705 2.06760747 2.78303705.91032156 0 1.56053638-.45169598 1.95067915-1.35704825l1.91086158 1.01742839c-.91079868 1.61810814-2.27722658 2.42737038-4.09929238 2.42737038-1.4052392 0-2.5310007-.43083513-3.37630424-1.29155992-.84675225-.86167893-1.26890522-2.04942033-1.26890522-3.56370996 0-1.48760855.4357291-2.6685756 1.3077165-3.54332617.8719874-.87480261 1.95793133-1.31199574 3.25984436-1.31199574 1.92592112 0 3.30495359.75886659 4.13860681 2.2750558zm8.99006954 0c-.39112303-.85151305-.96416637-1.27753414-1.7197199-1.27753414-1.40621945 0-2.10983665.92817344-2.10983665 2.78356617 0 1.85581775.7036172 2.78303705 2.10983665 2.78303705.91180496 0 1.55034343-.45169598 1.91478261-1.35704825l1.95358522 1.01742839c-.90936732 1.61810814-2.27386941 2.42737038-4.09254335 2.42737038-1.40331337 0-2.52663723-.43083513-3.371455-1.29155992-.84334303-.86167893-1.26596444-2.04942033-1.26596444-3.56370996 0-1.48760855.42892803-2.6685756 1.28635035-3.54332617.8569452-.87480261 1.9477644-1.31199574 3.2734552-1.31199574 1.9225119 0 3.29960988.75886659 4.13034835 2.2750558z"/><g transform="matrix(.9937728 0 0 .9936696 -177.69267 6.3e-7)"><circle cx="255.55124" cy="15.31348" r="10.80664" style="fill:#fff"/><path d="M258.67819 12.18701c0-.4165-.33789-.75391-.75293-.75391h-4.77344c-.41504 0-.75293.3374-.75293.75391v4.77295h1.33105v5.65186h3.61719v-5.65186h1.33105v-4.77295z"/><circle cx="255.53854" cy="9.1723604" r="1.63281"/><path d="M255.5239 3.40723c-3.23242 0-5.96875 1.12793-8.20801 3.38379-2.29785 2.3335-3.44629 5.0957-3.44629 8.28467s1.14844 5.93164 3.44629 8.22656c2.29785 2.29443 5.03418 3.44189 8.20801 3.44189 3.21289 0 5.99805-1.15625 8.35352-3.47119 2.21973-2.19727 3.33008-4.92969 3.33008-8.19727s-1.12988-6.02881-3.3877-8.28467c-2.25977-2.25585-5.02442-3.38378-8.2959-3.38378m.02929 2.09961c2.64844 0 4.89746.93408 6.74707 2.80127q2.80371 2.770755 2.80371 6.76758c0 2.68359-.91504 4.91064-2.74512 6.68018-1.92871 1.90625-4.19629 2.85889-6.80566 2.85889-2.61035 0-4.85938-.94287-6.74707-2.82959-1.88965-1.88672-2.83301-4.12305-2.83301-6.70947 0-2.58691.9541-4.84229 2.8623-6.76758 1.83009-1.8672 4.06934-2.80128 6.71778-2.80128" clip-rule="evenodd" style="fill-rule:evenodd"/></g></svg>
