<?xml version="1.0" encoding="UTF-8" standalone="no"?>
<!-- Generator: Adobe Illustrator 13.0.2, SVG Export Plug-In . SVG Version: 6.00 Build 14948)  -->

<svg
   version="1.1"
   id="Layer_1"
   x="0px"
   y="0px"
   width="84.516998"
   height="23.553001"
   viewBox="-0.5 -0.101 84.516998 23.553001"
   enable-background="new -0.5 -0.101 88 31"
   xml:space="preserve"
   sodipodi:docname="cc0.svg"
   xmlns:inkscape="http://www.inkscape.org/namespaces/inkscape"
   xmlns:sodipodi="http://sodipodi.sourceforge.net/DTD/sodipodi-0.dtd"
   xmlns="http://www.w3.org/2000/svg"
   xmlns:svg="http://www.w3.org/2000/svg"><sodipodi:namedview
   id="namedview1"
   pagecolor="#ffffff"
   bordercolor="#000000"
   borderopacity="0.25"
   inkscape:showpageshadow="2"
   inkscape:pageopacity="0.0"
   inkscape:pagecheckerboard="0"
   inkscape:deskcolor="#d1d1d1"><inkscape:page
     x="0"
     y="0"
     width="84.516998"
     height="23.553001"
     id="page2"
     margin="0"
     bleed="0" /></sodipodi:namedview><defs
   id="defs16"><clipPath
     clipPathUnits="userSpaceOnUse"
     id="clipPath21"><g
       id="g32"
       style="display:none"><path
         fill="#ffffff"
         d="m 39.857226,7.559 c 0.392,0 0.728,0.059 1.002,0.173 0.276,0.116 0.5,0.268 0.674,0.456 0.173,0.189 0.299,0.405 0.379,0.647 0.079,0.242 0.118,0.494 0.118,0.753 0,0.253 -0.039,0.503 -0.118,0.749 -0.08,0.244 -0.206,0.462 -0.379,0.65 -0.174,0.189 -0.397,0.341 -0.674,0.456 -0.274,0.114 -0.61,0.173 -1.002,0.173 h -1.452 v 2.267 h -1.382 V 7.559 Z m -0.379,2.976 c 0.158,0 0.312,-0.012 0.457,-0.035 0.147,-0.023 0.276,-0.069 0.388,-0.137 0.112,-0.068 0.201,-0.164 0.269,-0.288 0.068,-0.124 0.101,-0.287 0.101,-0.487 0,-0.2 -0.033,-0.362 -0.101,-0.487 -0.067,-0.124 -0.157,-0.221 -0.269,-0.287 -0.111,-0.068 -0.24,-0.114 -0.388,-0.138 -0.146,-0.024 -0.299,-0.036 -0.457,-0.036 h -1.073 v 1.896 z"
         id="path21" /><path
         fill="#ffffff"
         d="m 47.869226,13.4 c -0.476,0.417 -1.133,0.625 -1.972,0.625 -0.851,0 -1.509,-0.207 -1.976,-0.62 -0.466,-0.412 -0.699,-1.052 -0.699,-1.913 V 7.559 h 1.381 v 3.934 c 0,0.171 0.016,0.338 0.045,0.505 0.029,0.165 0.091,0.311 0.185,0.439 0.094,0.126 0.225,0.229 0.392,0.309 0.167,0.081 0.392,0.12 0.673,0.12 0.493,0 0.833,-0.11 1.021,-0.332 0.188,-0.222 0.282,-0.568 0.282,-1.04 V 7.559 h 1.382 v 3.934 c -0.001,0.855 -0.238,1.49 -0.714,1.907 z"
         id="path22" /><path
         fill="#ffffff"
         d="m 53.188226,7.559 c 0.3,0 0.572,0.027 0.818,0.081 0.244,0.054 0.457,0.14 0.633,0.261 0.177,0.121 0.312,0.282 0.41,0.482 0.096,0.201 0.146,0.45 0.146,0.745 0,0.318 -0.072,0.584 -0.216,0.796 -0.146,0.212 -0.357,0.388 -0.639,0.523 0.387,0.112 0.676,0.31 0.865,0.589 0.189,0.281 0.286,0.62 0.286,1.015 0,0.319 -0.062,0.595 -0.187,0.828 -0.123,0.232 -0.289,0.423 -0.496,0.571 -0.209,0.148 -0.445,0.257 -0.713,0.327 -0.269,0.07 -0.541,0.105 -0.822,0.105 h -3.047 V 7.559 Z m -0.175,2.56 c 0.246,0 0.448,-0.059 0.607,-0.178 0.158,-0.118 0.236,-0.309 0.236,-0.576 0,-0.147 -0.025,-0.269 -0.078,-0.363 -0.053,-0.093 -0.123,-0.168 -0.211,-0.221 -0.09,-0.053 -0.189,-0.091 -0.305,-0.109 -0.115,-0.022 -0.232,-0.032 -0.355,-0.032 h -1.294 v 1.48 z m 0.08,2.685 c 0.135,0 0.264,-0.014 0.387,-0.04 0.123,-0.026 0.23,-0.072 0.326,-0.133 0.092,-0.062 0.168,-0.147 0.226,-0.254 0.056,-0.104 0.083,-0.241 0.083,-0.406 0,-0.324 -0.092,-0.557 -0.271,-0.695 -0.182,-0.138 -0.424,-0.208 -0.723,-0.208 h -1.505 v 1.738 h 1.479 v -0.002 z"
         id="path23" /><path
         fill="#ffffff"
         d="m 58.261226,7.559 v 5.156 h 3.062 v 1.168 h -4.445 V 7.559 Z"
         id="path24" /><path
         fill="#ffffff"
         d="m 63.866226,7.559 v 6.324 h -1.382 V 7.559 Z"
         id="path25" /><path
         fill="#ffffff"
         d="m 69.569226,9.247 c -0.082,-0.132 -0.186,-0.249 -0.309,-0.349 -0.123,-0.102 -0.263,-0.18 -0.418,-0.236 -0.156,-0.057 -0.316,-0.084 -0.488,-0.084 -0.312,0 -0.574,0.062 -0.793,0.183 -0.217,0.12 -0.394,0.283 -0.525,0.486 -0.136,0.204 -0.232,0.436 -0.296,0.695 -0.062,0.259 -0.093,0.528 -0.093,0.806 0,0.267 0.031,0.524 0.093,0.776 0.062,0.251 0.16,0.477 0.296,0.678 0.134,0.201 0.312,0.361 0.525,0.483 0.219,0.12 0.481,0.181 0.793,0.181 0.424,0 0.752,-0.13 0.99,-0.389 0.236,-0.26 0.383,-0.602 0.437,-1.028 h 1.337 c -0.034,0.396 -0.126,0.753 -0.271,1.072 -0.146,0.318 -0.342,0.591 -0.582,0.815 -0.238,0.225 -0.521,0.396 -0.845,0.513 -0.323,0.119 -0.678,0.178 -1.065,0.178 -0.479,0 -0.914,-0.084 -1.297,-0.252 -0.385,-0.169 -0.709,-0.398 -0.973,-0.695 -0.265,-0.295 -0.468,-0.642 -0.607,-1.04 -0.142,-0.399 -0.211,-0.829 -0.211,-1.289 0,-0.473 0.069,-0.911 0.211,-1.316 0.141,-0.404 0.344,-0.758 0.607,-1.059 0.264,-0.302 0.588,-0.536 0.973,-0.708 0.384,-0.172 0.815,-0.258 1.297,-0.258 0.348,0 0.676,0.051 0.981,0.15 0.308,0.102 0.583,0.248 0.827,0.44 0.243,0.191 0.443,0.43 0.604,0.712 0.158,0.283 0.259,0.608 0.301,0.975 h -1.34 c -0.024,-0.163 -0.077,-0.31 -0.159,-0.44 z"
         id="path26" /><path
         fill="#ffffff"
         d="m 39.733226,16.418 c 0.405,0 0.782,0.062 1.131,0.192 0.35,0.13 0.651,0.324 0.906,0.585 0.255,0.26 0.455,0.586 0.599,0.975 0.144,0.391 0.216,0.849 0.216,1.371 0,0.463 -0.059,0.888 -0.176,1.277 -0.118,0.391 -0.295,0.727 -0.532,1.012 -0.238,0.281 -0.534,0.504 -0.89,0.668 -0.354,0.16 -0.772,0.242 -1.254,0.242 h -2.71 v -6.322 z m -0.096,5.154 c 0.199,0 0.393,-0.031 0.581,-0.098 0.188,-0.062 0.354,-0.173 0.502,-0.323 0.146,-0.151 0.264,-0.347 0.352,-0.59 0.088,-0.241 0.132,-0.536 0.132,-0.886 0,-0.317 -0.031,-0.606 -0.093,-0.863 -0.062,-0.256 -0.162,-0.479 -0.304,-0.659 -0.141,-0.183 -0.326,-0.323 -0.559,-0.421 -0.231,-0.098 -0.517,-0.146 -0.858,-0.146 h -0.984 v 3.986 z"
         id="path27" /><path
         fill="#ffffff"
         d="m 43.918226,18.289 c 0.141,-0.403 0.344,-0.756 0.606,-1.059 0.265,-0.303 0.589,-0.538 0.973,-0.709 0.385,-0.171 0.816,-0.257 1.298,-0.257 0.487,0 0.921,0.086 1.303,0.257 0.381,0.171 0.704,0.406 0.969,0.709 0.264,0.303 0.466,0.652 0.605,1.059 0.143,0.404 0.213,0.845 0.213,1.316 0,0.46 -0.07,0.891 -0.213,1.288 -0.142,0.397 -0.344,0.744 -0.605,1.04 -0.266,0.295 -0.588,0.525 -0.969,0.695 -0.382,0.166 -0.815,0.252 -1.303,0.252 -0.481,0 -0.913,-0.086 -1.298,-0.252 -0.384,-0.17 -0.708,-0.4 -0.973,-0.695 -0.263,-0.296 -0.466,-0.645 -0.606,-1.04 -0.14,-0.397 -0.211,-0.828 -0.211,-1.288 0,-0.471 0.07,-0.911 0.211,-1.316 z m 1.262,2.09 c 0.062,0.252 0.16,0.479 0.295,0.68 0.135,0.2 0.312,0.359 0.527,0.482 0.218,0.121 0.481,0.183 0.792,0.183 0.312,0 0.576,-0.062 0.792,-0.183 0.218,-0.121 0.394,-0.281 0.529,-0.482 0.134,-0.2 0.231,-0.428 0.295,-0.68 0.062,-0.25 0.092,-0.508 0.092,-0.774 0,-0.276 -0.03,-0.547 -0.092,-0.806 -0.062,-0.262 -0.161,-0.492 -0.295,-0.696 -0.136,-0.201 -0.312,-0.365 -0.529,-0.485 -0.216,-0.121 -0.48,-0.184 -0.792,-0.184 -0.311,0 -0.574,0.062 -0.792,0.184 -0.216,0.12 -0.393,0.284 -0.527,0.485 -0.135,0.204 -0.233,0.437 -0.295,0.696 -0.062,0.259 -0.093,0.527 -0.093,0.806 10e-4,0.266 0.032,0.524 0.093,0.774 z"
         id="path28" /><path
         fill="#ffffff"
         d="m 53.210226,16.418 1.471,4.348 h 0.02 l 1.393,-4.348 h 1.942 v 6.322 h -1.294 v -4.48 h -0.02 l -1.539,4.48 h -1.065 l -1.54,-4.437 h -0.019 v 4.437 h -1.293 v -6.322 z"
         id="path29" /><path
         fill="#ffffff"
         d="m 62.882226,16.418 2.35,6.322 h -1.434 l -0.476,-1.408 h -2.351 l -0.492,1.408 h -1.391 l 2.377,-6.322 z m 0.08,3.879 -0.793,-2.322 h -0.018 l -0.817,2.322 z"
         id="path30" /><path
         fill="#ffffff"
         d="m 67.665226,16.418 v 6.322 h -1.382 v -6.322 z"
         id="path31" /><path
         fill="#ffffff"
         d="m 70.722226,16.418 2.623,4.242 h 0.018 v -4.242 h 1.294 v 6.322 h -1.384 l -2.611,-4.234 h -0.02 v 4.234 h -1.294 v -6.322 z"
         id="path32" /></g><path
       id="lpe_path-effect32"
       class="powerclip"
       d="M 18.271,-0.939 H 92.037 V 31.206 H 18.271 Z m 21.586226,8.498 h -2.834 v 6.324 h 1.382 v -2.267 h 1.452 c 0.392,0 0.728,-0.059 1.002,-0.173 0.277,-0.115 0.5,-0.267 0.674,-0.456 0.173,-0.188 0.299,-0.406 0.379,-0.65 0.079,-0.246 0.118,-0.496 0.118,-0.749 0,-0.259 -0.039,-0.511 -0.118,-0.753 -0.08,-0.242 -0.206,-0.458 -0.379,-0.647 -0.174,-0.188 -0.398,-0.34 -0.674,-0.456 -0.274,-0.114 -0.61,-0.173 -1.002,-0.173 z m -0.379,2.976 c 0.158,0 0.312,-0.012 0.457,-0.035 0.147,-0.023 0.276,-0.069 0.388,-0.137 0.112,-0.068 0.201,-0.164 0.269,-0.288 0.068,-0.124 0.101,-0.287 0.101,-0.487 0,-0.2 -0.033,-0.362 -0.101,-0.487 -0.067,-0.124 -0.157,-0.221 -0.269,-0.287 -0.111,-0.068 -0.24,-0.114 -0.388,-0.138 -0.146,-0.024 -0.299,-0.036 -0.457,-0.036 h -1.073 v 1.896 z m 8.391,2.865 c 0.476,-0.417 0.713,-1.052 0.714,-1.907 V 7.559 h -1.382 v 3.935 c 0,0.472 -0.094,0.818 -0.282,1.04 -0.188,0.222 -0.528,0.332 -1.021,0.332 -0.281,0 -0.506,-0.039 -0.673,-0.12 -0.167,-0.08 -0.298,-0.183 -0.392,-0.309 -0.094,-0.128 -0.156,-0.274 -0.185,-0.439 -0.029,-0.167 -0.045,-0.334 -0.045,-0.505 V 7.559 h -1.381 v 3.933 c 0,0.861 0.233,1.501 0.699,1.913 0.467,0.413 1.125,0.62 1.976,0.62 0.839,0 1.496,-0.208 1.972,-0.625 z m 5.319,-5.841 h -2.962 v 6.323 h 3.047 c 0.281,0 0.553,-0.035 0.822,-0.105 0.268,-0.07 0.504,-0.179 0.713,-0.327 0.207,-0.148 0.373,-0.339 0.496,-0.571 0.125,-0.233 0.187,-0.509 0.187,-0.828 0,-0.395 -0.097,-0.734 -0.286,-1.015 -0.189,-0.279 -0.478,-0.477 -0.865,-0.589 0.282,-0.135 0.493,-0.311 0.639,-0.523 0.144,-0.212 0.216,-0.478 0.216,-0.796 0,-0.295 -0.05,-0.544 -0.146,-0.745 -0.098,-0.2 -0.233,-0.361 -0.41,-0.482 -0.176,-0.121 -0.389,-0.207 -0.633,-0.261 -0.246,-0.054 -0.518,-0.081 -0.818,-0.081 z m -0.175,2.56 c 0.246,0 0.448,-0.059 0.607,-0.178 0.158,-0.118 0.236,-0.309 0.236,-0.576 0,-0.147 -0.025,-0.269 -0.078,-0.363 -0.053,-0.093 -0.123,-0.168 -0.211,-0.221 -0.09,-0.053 -0.189,-0.091 -0.305,-0.109 -0.115,-0.022 -0.232,-0.032 -0.355,-0.032 h -1.294 v 1.48 z m 0.08,2.685 c 0.135,0 0.264,-0.014 0.387,-0.04 0.123,-0.026 0.23,-0.072 0.326,-0.133 0.092,-0.062 0.168,-0.147 0.226,-0.254 0.056,-0.104 0.083,-0.241 0.083,-0.406 0,-0.324 -0.092,-0.557 -0.271,-0.695 -0.182,-0.138 -0.424,-0.208 -0.723,-0.208 h -1.505 v 1.738 h 1.479 v -0.002 z m 5.168,-5.245 h -1.383 v 6.324 h 4.445 v -1.168 h -3.062 z m 5.605,0 h -1.382 v 6.324 h 1.382 z m 5.703,1.688 c 0.082,0.13 0.135,0.277 0.159,0.44 h 1.34 c -0.042,-0.367 -0.143,-0.692 -0.301,-0.975 -0.161,-0.282 -0.361,-0.521 -0.604,-0.712 -0.244,-0.192 -0.519,-0.338 -0.827,-0.44 -0.305,-0.099 -0.633,-0.15 -0.981,-0.15 -0.482,0 -0.913,0.086 -1.297,0.258 -0.385,0.172 -0.709,0.406 -0.973,0.708 -0.263,0.301 -0.466,0.655 -0.607,1.059 -0.142,0.405 -0.211,0.843 -0.211,1.316 0,0.46 0.069,0.89 0.211,1.289 0.139,0.398 0.342,0.745 0.607,1.04 0.264,0.297 0.588,0.526 0.973,0.695 0.383,0.168 0.818,0.252 1.297,0.252 0.387,0 0.742,-0.059 1.065,-0.178 0.324,-0.117 0.607,-0.288 0.845,-0.513 0.24,-0.224 0.436,-0.497 0.582,-0.815 0.145,-0.319 0.237,-0.676 0.271,-1.072 h -1.337 c -0.054,0.426 -0.201,0.768 -0.437,1.028 -0.238,0.259 -0.566,0.389 -0.99,0.389 -0.312,0 -0.574,-0.061 -0.793,-0.181 -0.213,-0.122 -0.391,-0.282 -0.525,-0.483 -0.136,-0.201 -0.234,-0.427 -0.296,-0.678 -0.062,-0.252 -0.093,-0.509 -0.093,-0.776 0,-0.278 0.031,-0.547 0.093,-0.806 0.064,-0.259 0.16,-0.491 0.296,-0.695 0.131,-0.203 0.308,-0.366 0.525,-0.486 0.219,-0.121 0.481,-0.183 0.793,-0.183 0.172,0 0.332,0.027 0.488,0.084 0.155,0.056 0.295,0.134 0.418,0.236 0.123,0.1 0.227,0.217 0.309,0.349 z m -29.836,7.171 h -2.71 v 6.322 h 2.71 c 0.482,0 0.9,-0.082 1.254,-0.242 0.356,-0.164 0.652,-0.387 0.89,-0.668 0.237,-0.285 0.414,-0.621 0.532,-1.012 0.117,-0.389 0.176,-0.814 0.176,-1.277 0,-0.522 -0.072,-0.98 -0.216,-1.371 -0.144,-0.389 -0.344,-0.715 -0.599,-0.975 -0.255,-0.261 -0.556,-0.455 -0.906,-0.585 -0.349,-0.13 -0.726,-0.192 -1.131,-0.192 z m -0.096,5.154 c 0.199,0 0.393,-0.031 0.581,-0.098 0.188,-0.062 0.354,-0.173 0.502,-0.323 0.146,-0.151 0.264,-0.347 0.352,-0.59 0.088,-0.241 0.132,-0.536 0.132,-0.886 0,-0.317 -0.031,-0.606 -0.093,-0.863 -0.062,-0.256 -0.162,-0.479 -0.304,-0.659 -0.141,-0.183 -0.326,-0.323 -0.559,-0.421 -0.231,-0.098 -0.517,-0.146 -0.858,-0.146 h -0.984 v 3.986 z m 4.281,-3.283 c -0.141,0.405 -0.211,0.845 -0.211,1.316 0,0.46 0.071,0.891 0.211,1.288 0.14,0.395 0.343,0.744 0.606,1.04 0.265,0.295 0.589,0.525 0.973,0.695 0.385,0.166 0.817,0.252 1.298,0.252 0.488,0 0.921,-0.086 1.303,-0.252 0.381,-0.17 0.703,-0.4 0.969,-0.695 0.261,-0.296 0.463,-0.643 0.605,-1.04 0.143,-0.397 0.213,-0.828 0.213,-1.288 0,-0.471 -0.07,-0.912 -0.213,-1.316 -0.139,-0.407 -0.341,-0.756 -0.605,-1.059 -0.265,-0.303 -0.588,-0.538 -0.969,-0.709 -0.382,-0.171 -0.816,-0.257 -1.303,-0.257 -0.482,0 -0.913,0.086 -1.298,0.257 -0.384,0.171 -0.708,0.406 -0.973,0.709 -0.262,0.303 -0.465,0.656 -0.606,1.059 z m 1.262,2.09 c 0.062,0.252 0.16,0.479 0.295,0.68 0.135,0.2 0.312,0.359 0.527,0.482 0.218,0.121 0.481,0.183 0.792,0.183 0.312,0 0.576,-0.062 0.792,-0.183 0.218,-0.121 0.394,-0.281 0.529,-0.482 0.134,-0.2 0.231,-0.428 0.295,-0.68 0.062,-0.25 0.092,-0.508 0.092,-0.774 0,-0.276 -0.03,-0.547 -0.092,-0.806 -0.062,-0.262 -0.161,-0.492 -0.295,-0.696 -0.136,-0.201 -0.312,-0.365 -0.529,-0.485 -0.216,-0.121 -0.48,-0.184 -0.792,-0.184 -0.311,0 -0.574,0.062 -0.792,0.184 -0.216,0.12 -0.393,0.284 -0.527,0.485 -0.135,0.204 -0.233,0.437 -0.295,0.696 -0.062,0.259 -0.093,0.527 -0.093,0.806 10e-4,0.266 0.032,0.524 0.093,0.774 z m 8.03,-3.961 h -1.944 v 6.322 h 1.293 v -4.437 h 0.019 l 1.54,4.437 h 1.065 l 1.539,-4.48 h 0.02 v 4.48 h 1.294 v -6.322 h -1.942 l -1.393,4.348 h -0.02 z m 9.672,0 h -1.417 l -2.377,6.322 h 1.391 l 0.492,-1.408 h 2.351 l 0.476,1.408 h 1.434 z m 0.08,3.879 -0.793,-2.322 h -0.018 l -0.817,2.322 z m 4.703,-3.879 h -1.382 v 6.322 h 1.382 z m 3.057,0 h -1.374 v 6.322 h 1.294 v -4.234 h 0.02 l 2.611,4.234 h 1.384 v -6.322 h -1.294 v 4.242 h -0.018 z" /></clipPath></defs>
<g
   id="g1"
   transform="translate(-4.2274258,-5.239526)"
   inkscape:export-filename="cc0.svg"
   inkscape:export-xdpi="96"
   inkscape:export-ydpi="96"><path
     d="m 23.271,4.061 c 3.484,2.592 5.754,6.744 5.755,11.44 -0.001,4.272 -1.88,8.095 -4.842,10.705 H 87.037 V 4.061 Z"
     id="path2"
     clip-path="url(#clipPath21)"
     transform="translate(1.2074256,1.3905257)" /><path
     id="text2809_4_"
     d="m 15.427426,10.136526 c -3.862,0 -4.834,3.669 -4.834,6.779 0,3.111 0.971,6.779 4.834,6.779 3.863,0 4.834,-3.67 4.834,-6.779 0,-3.111 -0.971,-6.779 -4.834,-6.779 z m 0,2.555 c 0.157,0 0.3,0.024 0.435,0.06 0.278,0.24 0.414,0.573 0.147,1.038 l -2.572,4.76 c -0.079,-0.603 -0.091,-1.195 -0.091,-1.634 0,-1.37 0.094,-4.224 2.081,-4.224 z m 1.926,2.193 c 0.137,0.731 0.155,1.493 0.155,2.03 0,1.37 -0.094,4.223 -2.08,4.223 -0.156,0 -0.301,-0.017 -0.435,-0.049 -0.025,-0.01 -0.049,-0.019 -0.074,-0.025 -0.04,-0.012 -0.084,-0.024 -0.122,-0.041 -0.442,-0.188 -0.721,-0.531 -0.319,-1.139 z" /><path
     id="path2815_4_"
     d="m 15.402426,5.1385257 c -3.245,0 -5.9800004,1.137 -8.2100004,3.422 -1.128,1.135 -1.99,2.4310003 -2.589,3.8760003 -0.585,1.43 -0.876,2.921 -0.876,4.478 0,1.57 0.291,3.062 0.876,4.479 0.585,1.417 1.434,2.69 2.548,3.826 1.128,1.121 2.395,1.985 3.8020004,2.588 1.421,0.59 2.903,0.884 4.449,0.884 1.547,0 3.05,-0.304 4.499,-0.907 1.448,-0.604 2.74,-1.471 3.883,-2.605 1.101,-1.078 1.934,-2.317 2.49,-3.719 0.571,-1.415 0.853,-2.932 0.853,-4.544 0,-1.598 -0.281,-3.112 -0.852,-4.528 -0.571,-1.429 -1.407,-2.6930003 -2.507,-3.8010003 -2.298,-2.302 -5.092,-3.449 -8.366,-3.449 z m 0.049,2.119 c 2.646,0 4.904,0.944 6.784,2.8360003 0.906,0.912 1.6,1.954 2.073,3.119 0.473,1.164 0.713,2.398 0.713,3.703 0,2.707 -0.92,4.952 -2.744,6.746 -0.948,0.927 -2.012,1.638 -3.196,2.128 -1.17,0.489 -2.375,0.732 -3.63,0.732 -1.268,0 -2.481,-0.239 -3.638,-0.717 -1.156,-0.489 -2.1930004,-1.191 -3.1130004,-2.104 -0.92,-0.925 -1.629,-1.97 -2.13,-3.135 -0.487,-1.178 -0.738,-2.391 -0.738,-3.653 0,-1.276 0.251,-2.497 0.738,-3.662 0.501,-1.178 1.211,-2.235 2.13,-3.175 C 10.524426,8.1995257 12.777426,7.2575257 15.451426,7.2575257 Z" /></g>
</svg>
